<svg width="333" height="336" viewBox="0 0 333 336" fill="none" xmlns="http://www.w3.org/2000/svg">
<path fill-rule="evenodd" clip-rule="evenodd" d="M30.3727 29.3466H162.024V163.227H30.3727V29.3466ZM30.3727 306.736H162.024V172.856H30.3727V306.736ZM302.744 29.3466H171.092V163.227H302.744V29.3466ZM4.90109 0.608643H121.403L161.645 25.2916H30.1303L4.90109 0.608643ZM4.90109 335.474H121.403L161.645 310.791H30.1303L4.90109 335.474ZM328.215 0.608643H211.713L171.471 25.2916H302.986L328.215 0.608643ZM0.814102 3.85461L26.6981 29.0269V161.904L0.814102 119.112V3.85461ZM0.814102 332.228L26.6981 307.056V174.179L0.814102 216.97V332.228ZM302.744 306.736H171.092V172.856H302.744V306.736ZM328.215 335.474H211.713L171.471 310.791H302.986L328.215 335.474ZM332.302 332.228L306.418 307.056V174.179L332.302 216.97V332.228ZM332.302 3.85461L306.418 29.0269V161.904L332.302 119.112V3.85461Z" fill="#2E3092"/>
</svg>
