<svg width="332" height="335" viewBox="0 0 332 335" fill="none" xmlns="http://www.w3.org/2000/svg">
<path fill-rule="evenodd" clip-rule="evenodd" d="M29.5586 28.7379H161.21V162.618H29.5586V28.7379ZM29.5586 306.128H161.21V172.247H29.5586V306.128ZM301.93 28.7379H170.278V162.618H301.93V28.7379ZM4.08699 0H120.589L160.831 24.683H29.3162L4.08699 0ZM4.08699 334.866H120.589L160.831 310.182H29.3162L4.08699 334.866ZM327.401 0H210.899L170.657 24.683H302.172L327.401 0ZM0 3.24597L25.884 28.4182V161.295L0 118.504V3.24597ZM0 331.619L25.884 306.447V173.57L0 216.362V331.619ZM301.93 306.128H170.278V172.247H301.93V306.128ZM327.401 334.866H210.899L170.657 310.182H302.172L327.401 334.866ZM331.488 331.619L305.604 306.447V173.57L331.488 216.362V331.619ZM331.488 3.24597L305.604 28.4182V161.295L331.488 118.504V3.24597Z" fill="white"/>
</svg>
