<svg width="24" height="24" viewBox="0 0 24 24" fill="none" xmlns="http://www.w3.org/2000/svg">
<path d="M7.20731 5.03176C7.1105 5.0124 6.99432 5.0124 6.91687 5.05112C5.87128 5.45774 5.21294 6.94868 5.05804 7.97491C4.57397 11.3053 7.20731 14.1904 9.62766 16.0879C11.7769 17.7724 15.9012 20.5413 18.3409 17.8693C18.6507 17.5401 19.0186 17.056 18.9993 16.572C18.9412 15.7587 18.186 15.1778 17.6051 14.7325C17.1598 14.4034 16.2304 13.4933 15.6495 13.5127C15.1267 13.532 14.7975 14.0742 14.4684 14.4034L13.8875 14.9843C13.7907 15.081 12.5514 14.2678 12.4159 14.171C11.9125 13.8418 11.4284 13.474 11.0024 13.0673C10.5764 12.6607 10.1892 12.2154 9.86002 11.7507C9.7632 11.6151 8.96933 10.434 9.04678 10.3372C9.04678 10.3372 9.72448 9.60138 9.91811 9.31094C10.3247 8.69133 10.6345 8.20726 10.1698 7.47147C9.99556 7.20039 9.78257 6.9874 9.55021 6.75505C9.14359 6.36779 8.73698 5.96117 8.27227 5.63201C8.02055 5.43838 7.59457 5.08985 7.20731 5.03176Z" fill="#F0F1F1"/>
</svg>
